<?xml version="1.0" encoding="UTF-8"?>
<svg xmlns="http://www.w3.org/2000/svg" xmlns:xlink="http://www.w3.org/1999/xlink" width="13px" height="13px" viewBox="0 0 13 13" version="1.1">
<g id="surface1">
<path style=" stroke:none;fill-rule:nonzero;fill:rgb(0%,0%,0%);fill-opacity:1;" d="M 11.78125 1.625 L 1.21875 1.625 C 0.546875 1.625 0 2.171875 0 2.84375 L 0 10.15625 C 0 10.828125 0.546875 11.375 1.21875 11.375 L 11.78125 11.375 C 12.453125 11.375 13 10.828125 13 10.15625 L 13 2.84375 C 13 2.171875 12.453125 1.625 11.78125 1.625 Z M 12.59375 9.976562 L 8.75 6.132812 L 12.59375 3.683594 Z M 1.21875 2.03125 L 11.78125 2.03125 C 12.230469 2.03125 12.59375 2.394531 12.59375 2.84375 L 12.59375 3.203125 L 7 6.765625 C 6.699219 6.960938 6.3125 6.953125 6.015625 6.753906 L 0.40625 2.9375 L 0.40625 2.84375 C 0.40625 2.394531 0.769531 2.03125 1.21875 2.03125 Z M 0.40625 3.429688 L 4.300781 6.078125 L 0.40625 9.976562 Z M 11.78125 10.96875 L 1.21875 10.96875 C 0.882812 10.96875 0.59375 10.765625 0.472656 10.476562 L 4.640625 6.308594 L 5.789062 7.089844 C 6.007812 7.238281 6.265625 7.3125 6.519531 7.3125 C 6.761719 7.3125 7.003906 7.246094 7.21875 7.109375 L 8.40625 6.351562 L 12.527344 10.476562 C 12.40625 10.765625 12.117188 10.96875 11.78125 10.96875 Z M 11.78125 10.96875 "/>
</g>
</svg>
