<?xml version="1.0" encoding="UTF-8"?>
<svg xmlns="http://www.w3.org/2000/svg" xmlns:xlink="http://www.w3.org/1999/xlink" width="13px" height="13px" viewBox="0 0 13 13" version="1.1">
<g id="surface1">
<path style=" stroke:none;fill-rule:nonzero;fill:rgb(0%,0%,0%);fill-opacity:1;" d="M 6.492188 0 C 4.011719 0 1.988281 2.023438 1.988281 4.503906 C 1.988281 6.898438 6.078125 12.492188 6.253906 12.730469 L 6.414062 12.949219 C 6.433594 12.976562 6.464844 12.992188 6.492188 12.992188 C 6.527344 12.992188 6.558594 12.976562 6.578125 12.949219 L 6.738281 12.730469 C 6.914062 12.492188 11.003906 6.898438 11.003906 4.503906 C 11.003906 2.023438 8.980469 0 6.492188 0 Z M 6.492188 2.894531 C 7.386719 2.894531 8.109375 3.621094 8.109375 4.503906 C 8.109375 5.398438 7.386719 6.121094 6.492188 6.121094 C 5.609375 6.121094 4.882812 5.398438 4.882812 4.503906 C 4.882812 3.621094 5.609375 2.894531 6.492188 2.894531 Z M 6.492188 2.894531 "/>
</g>
</svg>
