<?xml version="1.0" encoding="UTF-8"?>
<svg xmlns="http://www.w3.org/2000/svg" xmlns:xlink="http://www.w3.org/1999/xlink" width="13px" height="13px" viewBox="0 0 13 13" version="1.1">
<g id="surface1">
<path style=" stroke:none;fill-rule:nonzero;fill:rgb(0%,0%,0%);fill-opacity:1;" d="M 6.5 1.371094 C 3.675781 1.371094 1.371094 3.675781 1.371094 6.5 C 1.371094 9.324219 3.675781 11.628906 6.5 11.628906 C 9.324219 11.628906 11.628906 9.324219 11.628906 6.5 C 11.628906 3.675781 9.324219 1.371094 6.5 1.371094 Z M 6.5 1.980469 C 8.988281 1.980469 11.019531 4.011719 11.019531 6.5 C 11.019531 8.988281 8.988281 11.019531 6.5 11.019531 C 4.011719 11.019531 1.980469 8.988281 1.980469 6.5 C 1.980469 4.011719 4.011719 1.980469 6.5 1.980469 Z M 6.5 3.148438 C 6.328125 3.148438 6.195312 3.28125 6.195312 3.453125 L 6.195312 5.972656 C 6.011719 6.074219 5.890625 6.277344 5.890625 6.5 C 5.890625 6.835938 6.164062 7.109375 6.5 7.109375 C 6.722656 7.109375 6.925781 6.988281 7.027344 6.804688 L 8.53125 6.804688 C 8.703125 6.804688 8.835938 6.671875 8.835938 6.5 C 8.835938 6.328125 8.703125 6.195312 8.53125 6.195312 L 7.027344 6.195312 C 6.976562 6.105469 6.894531 6.023438 6.804688 5.972656 L 6.804688 3.453125 C 6.804688 3.28125 6.671875 3.148438 6.5 3.148438 Z M 6.5 3.148438 "/>
</g>
</svg>
