<?xml version="1.0" encoding="UTF-8"?>
<svg xmlns="http://www.w3.org/2000/svg" xmlns:xlink="http://www.w3.org/1999/xlink" width="13px" height="13px" viewBox="0 0 13 13" version="1.1">
<g id="surface1">
<path style=" stroke:none;fill-rule:nonzero;fill:rgb(69.019608%,85.490196%,80%);fill-opacity:1;" d="M 8.691406 8.574219 L 8.03125 9.234375 C 7.976562 9.203125 7.914062 9.171875 7.851562 9.136719 C 7.285156 8.824219 6.167969 8.054688 5.351562 7.238281 C 4.535156 6.421875 3.761719 5.300781 3.449219 4.734375 C 3.414062 4.675781 3.402344 4.636719 3.371094 4.582031 L 3.988281 4 L 4.054688 3.9375 C 4.542969 3.445312 4.542969 2.652344 4.054688 2.160156 L 3.085938 1.195312 C 2.59375 0.699219 1.792969 0.703125 1.304688 1.199219 L 1.046875 1.460938 C 0.878906 1.675781 0.734375 1.925781 0.632812 2.191406 C 0.535156 2.449219 0.472656 2.691406 0.445312 2.933594 C 0.210938 4.878906 1.101562 6.660156 3.515625 9.074219 C 6.851562 12.410156 9.523438 12.179688 9.640625 12.164062 C 9.890625 12.136719 10.152344 12.054688 10.398438 11.960938 C 10.664062 11.855469 10.914062 11.714844 11.128906 11.546875 L 11.390625 11.289062 C 11.886719 10.796875 11.890625 9.996094 11.398438 9.503906 L 10.46875 8.574219 C 9.976562 8.085938 9.183594 8.085938 8.691406 8.574219 Z M 8.691406 8.574219 "/>
<path style=" stroke:none;fill-rule:nonzero;fill:rgb(12.941176%,11.764706%,28.235294%);fill-opacity:1;" d="M 9.445312 12.582031 C 8.742188 12.582031 6.214844 12.351562 3.226562 9.363281 C 0.710938 6.847656 -0.210938 4.972656 0.0390625 2.886719 C 0.0703125 2.613281 0.136719 2.339844 0.25 2.046875 C 0.25 2.046875 0.25 2.046875 0.25 2.042969 C 0.367188 1.746094 0.53125 1.457031 0.722656 1.210938 C 0.734375 1.199219 0.742188 1.1875 0.753906 1.175781 L 1.011719 0.914062 C 1.328125 0.59375 1.75 0.417969 2.199219 0.417969 C 2.644531 0.417969 3.0625 0.589844 3.375 0.902344 L 4.34375 1.871094 C 4.65625 2.183594 4.832031 2.605469 4.832031 3.046875 C 4.832031 3.492188 4.65625 3.910156 4.34375 4.226562 L 4.277344 4.289062 C 4.277344 4.292969 4.273438 4.296875 4.269531 4.300781 L 3.878906 4.664062 C 4.199219 5.203125 4.890625 6.195312 5.644531 6.949219 C 6.40625 7.710938 7.425781 8.417969 7.960938 8.726562 L 8.402344 8.285156 C 8.714844 7.96875 9.132812 7.796875 9.578125 7.796875 C 10.023438 7.796875 10.441406 7.96875 10.757812 8.285156 L 11.6875 9.214844 C 12.003906 9.53125 12.175781 9.953125 12.175781 10.398438 C 12.171875 10.847656 11.996094 11.265625 11.675781 11.578125 L 11.414062 11.835938 C 11.402344 11.847656 11.394531 11.859375 11.378906 11.867188 C 11.132812 12.0625 10.84375 12.226562 10.546875 12.34375 C 10.222656 12.46875 9.941406 12.542969 9.6875 12.574219 C 9.664062 12.574219 9.582031 12.582031 9.445312 12.582031 Z M 1.015625 2.339844 C 0.929688 2.566406 0.878906 2.773438 0.855469 2.976562 C 0.855469 2.980469 0.855469 2.980469 0.855469 2.984375 C 0.636719 4.789062 1.492188 6.46875 3.804688 8.785156 C 6.570312 11.550781 8.820312 11.765625 9.445312 11.765625 C 9.542969 11.765625 9.59375 11.757812 9.59375 11.757812 C 9.777344 11.738281 9.992188 11.679688 10.25 11.578125 C 10.464844 11.492188 10.675781 11.375 10.855469 11.234375 L 11.101562 10.996094 C 11.265625 10.835938 11.355469 10.625 11.355469 10.394531 C 11.355469 10.167969 11.269531 9.957031 11.105469 9.792969 L 10.175781 8.863281 C 10.015625 8.703125 9.804688 8.617188 9.578125 8.617188 C 9.351562 8.617188 9.140625 8.703125 8.980469 8.863281 L 8.320312 9.523438 C 8.191406 9.652344 7.996094 9.679688 7.835938 9.59375 C 7.8125 9.582031 7.792969 9.570312 7.769531 9.558594 C 7.730469 9.539062 7.691406 9.519531 7.652344 9.496094 C 7.09375 9.1875 5.941406 8.40625 5.0625 7.527344 C 4.1875 6.652344 3.390625 5.472656 3.089844 4.9375 C 3.066406 4.894531 3.050781 4.859375 3.035156 4.828125 C 3.027344 4.8125 3.019531 4.796875 3.011719 4.78125 C 2.921875 4.617188 2.953125 4.410156 3.089844 4.28125 L 3.703125 3.707031 L 3.761719 3.644531 C 3.921875 3.488281 4.011719 3.273438 4.011719 3.046875 C 4.011719 2.824219 3.921875 2.609375 3.761719 2.449219 L 2.796875 1.484375 C 2.636719 1.324219 2.425781 1.234375 2.199219 1.234375 C 1.96875 1.234375 1.757812 1.324219 1.597656 1.488281 L 1.355469 1.734375 C 1.21875 1.914062 1.101562 2.121094 1.015625 2.339844 Z M 1.015625 2.339844 "/>
<path style=" stroke:none;fill-rule:nonzero;fill:rgb(12.941176%,11.764706%,28.235294%);fill-opacity:1;" d="M 10.238281 6.5625 C 10.128906 6.5625 10.015625 6.539062 9.914062 6.484375 C 9.671875 6.363281 9.519531 6.117188 9.519531 5.847656 L 7.53125 5.847656 C 6.914062 5.847656 6.414062 5.34375 6.414062 4.726562 L 6.414062 3.972656 C 6.414062 3.355469 6.914062 2.851562 7.53125 2.851562 L 7.796875 2.851562 C 8.023438 2.851562 8.207031 3.035156 8.207031 3.261719 C 8.207031 3.488281 8.023438 3.671875 7.796875 3.671875 L 7.53125 3.671875 C 7.367188 3.671875 7.230469 3.804688 7.230469 3.972656 L 7.230469 4.726562 C 7.230469 4.890625 7.367188 5.027344 7.53125 5.027344 L 9.929688 5.027344 C 10.15625 5.027344 10.339844 5.210938 10.339844 5.4375 L 10.339844 5.648438 L 12.113281 4.347656 L 10.339844 3.050781 L 10.339844 3.261719 C 10.339844 3.488281 10.15625 3.671875 9.929688 3.671875 L 9.265625 3.671875 C 9.039062 3.671875 8.855469 3.488281 8.855469 3.261719 C 8.855469 3.035156 9.039062 2.851562 9.265625 2.851562 L 9.519531 2.851562 C 9.519531 2.582031 9.671875 2.335938 9.914062 2.214844 C 10.15625 2.089844 10.445312 2.113281 10.664062 2.273438 L 12.707031 3.769531 C 12.890625 3.902344 13 4.121094 13 4.347656 C 13 4.578125 12.890625 4.796875 12.707031 4.929688 L 10.664062 6.425781 C 10.539062 6.515625 10.390625 6.5625 10.238281 6.5625 Z M 10.238281 6.5625 "/>
</g>
</svg>
